<svg id="Layer_1" data-name="Layer 1" xmlns="http://www.w3.org/2000/svg" viewBox="0 0 131.4 85.5"><defs><style>.cls-1{opacity:0.5;}.cls-2{fill:#ddd;}.cls-3{fill:#9b9b9b;}</style></defs><title>eight_bars_inactive</title><g id="_8_Bars" data-name="8 Bars"><rect class="cls-1" width="131.4" height="85.49"/><rect class="cls-2" x="11.4" y="3.4" width="114.9" height="75.48"/><polygon class="cls-3" points="11.7 3.4 4.9 7.8 4.9 82.1 120.9 82.1 126.5 78.5 11.7 78.9 11.7 3.4"/><path d="M71.9,40.2a6.1,6.1,0,0,1,2.9,2.3c.7,1,1,3.4,1,7.1a17.9,17.9,0,0,1-.8,6.1,6.4,6.4,0,0,1-3.1,3.2,13.4,13.4,0,0,1-6.2,1.2,12.8,12.8,0,0,1-6-1.2,7.1,7.1,0,0,1-3.1-3.1c-.7-1.3-1-3.5-1-6.6a28.4,28.4,0,0,1,.5-5.4,5.3,5.3,0,0,1,3-3.6,4.7,4.7,0,0,1-2.4-2.4,10.1,10.1,0,0,1-.8-4.2q0-4.4,2.4-6.6c1.7-1.4,4.1-2.1,7.3-2.1s6.3.7,7.8,2.3,2.1,3.8,2.1,6.6a7.9,7.9,0,0,1-.7,4A7.4,7.4,0,0,1,71.9,40.2ZM67.3,47a4.7,4.7,0,0,0-.4-2.5,1.4,1.4,0,0,0-2.4-.1,5.1,5.1,0,0,0-.4,2.6v4.5a5.8,5.8,0,0,0,.4,2.8,1.5,1.5,0,0,0,1.3.6,1.2,1.2,0,0,0,1.2-.6,8.9,8.9,0,0,0,.3-2.9Zm-.1-14.1a6,6,0,0,0-.3-2.3,1.5,1.5,0,0,0-1.2-.5c-.6,0-1,.2-1.1.6a5.4,5.4,0,0,0-.3,2.2v2.6a5.1,5.1,0,0,0,.3,2.1,1.1,1.1,0,0,0,1.1.6,1.2,1.2,0,0,0,1.2-.6,5.9,5.9,0,0,0,.3-2.4Z" transform="translate(0 0.2)"/></g></svg>