<svg id="Layer_1" data-name="Layer 1" xmlns="http://www.w3.org/2000/svg" viewBox="0 0 145.8 85.5"><defs><style>.cls-1{opacity:0.5;}.cls-2{fill:#ddd;}</style></defs><title>sixteen_bars_pressed</title><g id="_16_Bars" data-name="16 Bars"><g id="_16_Bars-2" data-name="16 Bars"><rect class="cls-1" width="145.8" height="85.49"/><rect class="cls-2" x="8.7" y="5" width="128.5" height="75.48"/></g><path d="M67.8,25.5v34H59.4V41.3a38,38,0,0,0-.2-4.8,2.1,2.1,0,0,0-1.1-1.2,12.6,12.6,0,0,0-3.8-.4h-.8V31c4.1-.9,7.2-2.7,9.3-5.5Z" transform="translate(0.4 0.2)"/><path d="M91.5,34.5H83V31.6a1.9,1.9,0,0,0-.5-1.1,1.8,1.8,0,0,0-1.3-.4,1.2,1.2,0,0,0-1,.4,1.4,1.4,0,0,0-.5,1,15.7,15.7,0,0,0-.1,2.6v5.4a4.8,4.8,0,0,1,1.9-2.1,7.4,7.4,0,0,1,3.1-.7A6.9,6.9,0,0,1,88.7,38,5.5,5.5,0,0,1,91,41a20.1,20.1,0,0,1,.5,4.8v2.7a33.3,33.3,0,0,1-.3,5.3A6.6,6.6,0,0,1,89.8,57a7.3,7.3,0,0,1-3.3,2.3,12.1,12.1,0,0,1-4.8.9,14.4,14.4,0,0,1-5.6-1,7.1,7.1,0,0,1-3.4-2.7,8.9,8.9,0,0,1-1.4-3.7c-.1-1.3-.2-3.9-.2-7.6V40.5c0-4.1.1-6.8.2-8.1a7.3,7.3,0,0,1,1.5-3.9,7.4,7.4,0,0,1,3.5-2.7,12.9,12.9,0,0,1,5.1-1A12.2,12.2,0,0,1,87.2,26a6.6,6.6,0,0,1,3.3,3.3A11.5,11.5,0,0,1,91.5,34.5ZM83,45.1a4.5,4.5,0,0,0-.4-2.4,1.3,1.3,0,0,0-1.3-.7,1.5,1.5,0,0,0-1.3.6,6.7,6.7,0,0,0-.4,2.5v6.2a6,6,0,0,0,.4,2.9,1.4,1.4,0,0,0,1.3.7,1.8,1.8,0,0,0,1.1-.5c.4-.4.6-1.3.6-2.9Z" transform="translate(0.4 0.2)"/></g></svg>