<?xml version="1.0" encoding="utf-8"?>
<!-- Generator: Adobe Illustrator 23.0.1, SVG Export Plug-In . SVG Version: 6.00 Build 0)  -->
<svg version="1.1" id="Layer_1" xmlns="http://www.w3.org/2000/svg" xmlns:xlink="http://www.w3.org/1999/xlink" x="0px" y="0px"
	 viewBox="0 0 112.5 85.5" style="enable-background:new 0 0 112.5 85.5;" xml:space="preserve">
<style type="text/css">
	.st0{opacity:0.5;enable-background:new    ;}
	.st1{fill:#DDDDDD;}
	.st2{fill:#9B9B9B;}
</style>
<title>four_bars_inactive</title>
<g id="_4_Bars">
	<rect class="st0" width="112.5" height="85.5"/>
	<rect x="9.3" y="3.4" class="st1" width="99.4" height="75.5"/>
	<polygon class="st2" points="9.5,3.4 3.7,7.8 3.7,82.1 104.1,82.1 108.8,78.5 9.5,78.9 	"/>
	<g>
		<path d="M65,54v5.7H46.7l0-4.8c5.4-8.9,8.6-14.3,9.7-16.4c1-2.1,1.5-3.7,1.5-4.9c0-0.9-0.2-1.6-0.5-2c-0.3-0.4-0.8-0.7-1.4-0.7
			c-0.6,0-1.1,0.2-1.4,0.7c-0.3,0.5-0.5,1.5-0.5,2.9v3.2h-7.4v-1.2c0-1.9,0.1-3.3,0.3-4.4c0.2-1.1,0.7-2.1,1.4-3.2
			c0.8-1,1.7-1.8,2.9-2.4c1.2-0.5,2.7-0.8,4.3-0.8c3.3,0,5.8,0.8,7.5,2.5c1.7,1.6,2.5,3.7,2.5,6.2c0,1.9-0.5,3.9-1.4,6
			c-1,2.1-3.8,6.6-8.4,13.5H65z"/>
	</g>
</g>
</svg>
