<svg id="Layer_1" data-name="Layer 1" xmlns="http://www.w3.org/2000/svg" xmlns:xlink="http://www.w3.org/1999/xlink" viewBox="0 0 87.4 85.5"><defs><style>.cls-1{opacity:0.5;}.cls-2{fill:url(#New_Gradient_Swatch_1);}.cls-3{fill:#9b9b9b;}</style><radialGradient id="New_Gradient_Swatch_1" cx="45.78" cy="41.13" r="37.67" gradientUnits="userSpaceOnUse"><stop offset="0" stop-color="#d31313"/><stop offset="0.26" stop-color="#d64f4f"/><stop offset="0.62" stop-color="#da9b9b"/><stop offset="0.87" stop-color="#dccbcb"/><stop offset="1" stop-color="#ddd"/></radialGradient></defs><title>one_bar_active</title><g id="_1_Bar" data-name="1 Bar"><rect class="cls-1" width="87.4" height="85.49"/><rect class="cls-2" x="8.2" y="3.4" width="75.2" height="75.48"/><polygon class="cls-3" points="8.3 3.4 3.9 7.8 3.9 82.1 79.9 82.1 83.5 78.5 8.3 78.9 8.3 3.4"/><path d="M50.9,25.5v34H42.4V41.3a35.5,35.5,0,0,0-.2-4.8,1.9,1.9,0,0,0-1-1.2,10.6,10.6,0,0,0-3.8-.4h-.9v-4a15.3,15.3,0,0,0,9.4-5.4Z" transform="translate(0 0.3)"/></g></svg>