<?xml version="1.0" encoding="utf-8"?>
<!-- Generator: Adobe Illustrator 23.0.1, SVG Export Plug-In . SVG Version: 6.00 Build 0)  -->
<svg version="1.1" id="Layer_1" xmlns="http://www.w3.org/2000/svg" xmlns:xlink="http://www.w3.org/1999/xlink" x="0px" y="0px"
	 viewBox="0 0 145.8 85.5" style="enable-background:new 0 0 145.8 85.5;" xml:space="preserve">
<style type="text/css">
	.st0{opacity:0.5;enable-background:new    ;}
	.st1{fill:#DDDDDD;}
	.st2{fill:#9B9B9B;}
	.st3{fill:url(#SVGID_1_);}
</style>
<title>sixteen_bars_inactive</title>
<g id="_16_Bars">
	<g id="_16_Bars-2">
		<rect y="-0.1" class="st0" width="145.8" height="85.5"/>
		<rect x="12.2" y="3.3" class="st1" width="128.5" height="75.5"/>
		<polygon class="st2" points="12.5,3.3 4.9,7.7 5,82.1 134.7,82 140.9,78.4 12.5,78.9 		"/>
	</g>
	
		<radialGradient id="SVGID_1_" cx="72.9" cy="44.95" r="44.1271" gradientTransform="matrix(1 0 0 -0.9983 0 85.8626)" gradientUnits="userSpaceOnUse">
		<stop  offset="0" style="stop-color:#D31313"/>
		<stop  offset="0.26" style="stop-color:#D64F4F"/>
		<stop  offset="0.62" style="stop-color:#DA9B9B"/>
		<stop  offset="0.87" style="stop-color:#DCCBCB"/>
		<stop  offset="1" style="stop-color:#DDDDDD"/>
	</radialGradient>
	<rect x="23.2" y="3.3" class="st3" width="99.4" height="75.4"/>
	<path d="M79.1,40.3c1.2,0.4,2.2,1.3,2.9,2.3c0.7,1,1,3.4,1,7.1c0.1,2.1-0.2,4.1-0.8,6.1c-0.6,1.4-1.7,2.5-3.1,3.2
		c-1.9,0.9-4.1,1.3-6.2,1.2c-2.1,0.1-4.1-0.3-6-1.2c-1.3-0.7-2.4-1.8-3.1-3.1c-0.7-1.3-1-3.5-1-6.6c0-1.8,0.2-3.6,0.5-5.4
		c0.4-1.6,1.5-2.9,3-3.6c-1.1-0.5-1.9-1.3-2.4-2.4c-0.6-1.3-0.8-2.8-0.8-4.2c0-2.9,0.8-5.1,2.4-6.6c1.7-1.4,4.1-2.1,7.3-2.1
		c3.2,0,6.3,0.7,7.8,2.3s2.1,3.8,2.1,6.6c0.1,1.4-0.1,2.8-0.7,4C81.2,39,80.2,39.8,79.1,40.3z M74.5,47.1c0.1-0.9,0-1.7-0.4-2.5
		c-0.4-0.7-1.2-0.9-1.9-0.6c-0.2,0.1-0.4,0.3-0.5,0.5c-0.4,0.8-0.5,1.7-0.4,2.6v4.5c-0.1,1,0,1.9,0.4,2.8C72,54.8,72.5,55,73,55
		c0.5,0.1,1-0.2,1.2-0.6c0.3-0.9,0.4-1.9,0.3-2.9V47.1z M74.4,33c0.1-0.8-0.1-1.6-0.3-2.3c-0.3-0.3-0.7-0.5-1.2-0.5
		c-0.6,0-1,0.2-1.1,0.6c-0.3,0.7-0.4,1.5-0.3,2.2v2.6c0,0.7,0.1,1.4,0.3,2.1c0.2,0.4,0.6,0.6,1.1,0.6c0.5,0.1,1-0.2,1.2-0.6
		c0.3-0.8,0.4-1.6,0.3-2.4V33z"/>
</g>
</svg>
